# xmcd CD database file
# Copyright (C) 1995-1998 Ti Kan
#
# Track frame offsets:
#	150
#	10126
#	28042
#	43501
#	58752
#	71826
#	82944
#	95603
#	110607
#	126618
#	138975
#	149966
#	161466
#	170563
#	180110
#	191678
#	201004
#	212661
#	222530
#	235174
#	248392
#	259193
#	268901
#	281108
#	294438
#	306570
#	318582
#
# Disc length: 4434 seconds
#
# Revision: 1
# Processed by: cddbd v1.4b41PL3 Copyright (c) Steve Scherf et al.
# Submitted via: CDex 1.30
#
DISCID=a811501b
DTITLE=Dixie Aces - Moonshot cd2
DYEAR=1996
DGENRE=Country
TTITLE0=Slaughter on tenth avenue
TTITLE1=Verde
TTITLE2=Once
TTITLE3=My happiness
TTITLE4=The golden sea
TTITLE5=Quartermaster
TTITLE6=Johnny on his strings
TTITLE7=Guitar humoresque
TTITLE8=For you
TTITLE9=Things to do
TTITLE10=Silverado
TTITLE11=Midnight
TTITLE12=Darktown
TTITLE13=Round and round
TTITLE14=Twilight time
TTITLE15=Teen scene
TTITLE16=Theme for young lovers
TTITLE17=Wonderful land
TTITLE18=Zambesi
TTITLE19=Midnight in malaya
TTITLE20=Mukwai hula
TTITLE21=Bengawan solo
TTITLE22=Sari wande
TTITLE23=Chobolobo
TTITLE24=Ibuku
TTITLE25=Terang bulan
TTITLE26=Surfs up, dude
EXTD=\nYEAR: 1996  ID3G:   2
EXTT0=
EXTT1=
EXTT2=
EXTT3=
EXTT4=
EXTT5=
EXTT6=
EXTT7=
EXTT8=
EXTT9=
EXTT10=
EXTT11=
EXTT12=
EXTT13=
EXTT14=
EXTT15=
EXTT16=
EXTT17=
EXTT18=
EXTT19=
EXTT20=
EXTT21=
EXTT22=
EXTT23=
EXTT24=
EXTT25=
EXTT26=
PLAYORDER=
